<svg width="190" height="134" viewBox="0 0 190 134" fill="none" xmlns="http://www.w3.org/2000/svg">
<path d="M137.526 0H52.0691C49.8246 0 48.0054 1.81487 48.0054 4.04267C48.0054 6.27048 49.8246 8.08535 52.0691 8.08535H137.526C143.225 8.08535 147.867 12.699 147.867 18.3832V70.6219C147.867 76.2959 143.225 80.9096 137.526 80.9096H52.474C46.7755 80.9096 42.1326 76.2959 42.1326 70.6219V17.9805C42.1326 15.7425 40.3083 13.9327 38.0586 13.9327C35.8192 13.9327 34 15.7425 34 17.9805V70.6219C34 80.7617 42.2864 89 52.474 89H137.526C147.714 89 156 80.7617 156 70.6219V18.3832C156 8.23829 147.714 0 137.526 0ZM123.869 57.4335C121.399 57.4335 119.401 55.4402 119.401 52.9983C119.401 50.7552 117.576 48.9454 115.332 48.9454C113.087 48.9454 111.268 50.7552 111.268 52.9983C111.268 58.4786 114.855 63.1075 119.8 64.8V67.089C119.8 69.3219 121.625 71.1419 123.869 71.1419C126.119 71.1419 127.933 69.3219 127.933 67.089V64.8C132.883 63.1075 136.465 58.4786 136.465 52.9983C136.465 46.0753 130.818 40.4522 123.869 40.4522C121.399 40.4522 119.401 38.4589 119.401 36.0119C119.401 33.5598 121.399 31.5665 123.869 31.5665C126.329 31.5665 128.333 33.5598 128.333 36.0119C128.333 38.2448 130.152 40.0597 132.401 40.0597C134.646 40.0597 136.465 38.2448 136.465 36.0119C136.465 30.5214 132.883 25.9027 127.933 24.2051V21.9059C127.933 19.673 126.119 17.8581 123.869 17.8581C121.625 17.8581 119.8 19.673 119.8 21.9059V24.2051C114.855 25.9027 111.268 30.5214 111.268 36.0119C111.268 42.9247 116.92 48.5427 123.869 48.5427C126.329 48.5427 128.333 50.536 128.333 52.9983C128.333 55.4402 126.329 57.4335 123.869 57.4335ZM54.3291 68.7764H94.9974C97.242 68.7764 99.0612 66.9565 99.0612 64.7287C99.0612 62.5009 97.242 60.686 94.9974 60.686H54.3291C52.0845 60.686 50.2653 62.5009 50.2653 64.7287C50.2653 66.9565 52.0845 68.7764 54.3291 68.7764ZM54.3291 28.3191H94.9974C97.242 28.3191 99.0612 26.5042 99.0612 24.2764C99.0612 22.0384 97.242 20.2287 94.9974 20.2287H54.3291C52.0845 20.2287 50.2653 22.0384 50.2653 24.2764C50.2653 26.5042 52.0845 28.3191 54.3291 28.3191ZM54.3291 48.5427H94.9974C97.242 48.5427 99.0612 46.7329 99.0612 44.4949C99.0612 42.262 97.242 40.4522 94.9974 40.4522H54.3291C52.0845 40.4522 50.2653 42.262 50.2653 44.4949C50.2653 46.7329 52.0845 48.5427 54.3291 48.5427Z" fill="white"/>
<path d="M13.8849 115.362H11.2287C11.1529 114.927 11.0133 114.541 10.8097 114.205C10.6061 113.864 10.3527 113.575 10.0497 113.338C9.74669 113.101 9.40104 112.924 9.01278 112.805C8.62926 112.682 8.21496 112.621 7.76989 112.621C6.97917 112.621 6.27841 112.82 5.66761 113.217C5.05682 113.61 4.5786 114.188 4.23295 114.95C3.88731 115.708 3.71449 116.634 3.71449 117.727C3.71449 118.84 3.88731 119.777 4.23295 120.54C4.58333 121.297 5.06155 121.87 5.66761 122.259C6.27841 122.642 6.9768 122.834 7.76278 122.834C8.19839 122.834 8.60559 122.777 8.98438 122.663C9.3679 122.545 9.71117 122.372 10.0142 122.145C10.322 121.918 10.58 121.638 10.7884 121.307C11.0014 120.975 11.1482 120.597 11.2287 120.17L13.8849 120.185C13.7855 120.876 13.5701 121.525 13.2386 122.131C12.9119 122.737 12.4834 123.272 11.9531 123.736C11.4228 124.195 10.8026 124.555 10.0923 124.815C9.3821 125.071 8.59375 125.199 7.72727 125.199C6.44886 125.199 5.30777 124.903 4.30398 124.311C3.30019 123.719 2.50947 122.865 1.93182 121.747C1.35417 120.63 1.06534 119.29 1.06534 117.727C1.06534 116.16 1.35653 114.82 1.93892 113.707C2.52131 112.59 3.31439 111.735 4.31818 111.143C5.32197 110.552 6.45833 110.256 7.72727 110.256C8.53693 110.256 9.28977 110.369 9.9858 110.597C10.6818 110.824 11.3021 111.158 11.8466 111.598C12.3911 112.034 12.8385 112.569 13.1889 113.203C13.544 113.833 13.776 114.553 13.8849 115.362ZM20.9428 125.213C19.8775 125.213 18.9542 124.979 18.1729 124.51C17.3917 124.041 16.7856 123.385 16.3548 122.543C15.9286 121.7 15.7156 120.715 15.7156 119.588C15.7156 118.461 15.9286 117.474 16.3548 116.626C16.7856 115.779 17.3917 115.121 18.1729 114.652C18.9542 114.183 19.8775 113.949 20.9428 113.949C22.0082 113.949 22.9315 114.183 23.7127 114.652C24.494 115.121 25.0977 115.779 25.5238 116.626C25.9547 117.474 26.1701 118.461 26.1701 119.588C26.1701 120.715 25.9547 121.7 25.5238 122.543C25.0977 123.385 24.494 124.041 23.7127 124.51C22.9315 124.979 22.0082 125.213 20.9428 125.213ZM20.957 123.153C21.5347 123.153 22.0176 122.995 22.4059 122.678C22.7942 122.356 23.083 121.925 23.2724 121.385C23.4665 120.845 23.5636 120.244 23.5636 119.581C23.5636 118.913 23.4665 118.31 23.2724 117.77C23.083 117.225 22.7942 116.792 22.4059 116.47C22.0176 116.148 21.5347 115.987 20.957 115.987C20.3652 115.987 19.8728 116.148 19.4798 116.47C19.0915 116.792 18.8003 117.225 18.6062 117.77C18.4168 118.31 18.3221 118.913 18.3221 119.581C18.3221 120.244 18.4168 120.845 18.6062 121.385C18.8003 121.925 19.0915 122.356 19.4798 122.678C19.8728 122.995 20.3652 123.153 20.957 123.153ZM30.9233 118.608V125H28.3523V114.091H30.8097V115.945H30.9375C31.1884 115.334 31.5885 114.848 32.1378 114.489C32.6918 114.129 33.3759 113.949 34.1903 113.949C34.9432 113.949 35.599 114.11 36.1577 114.432C36.7211 114.754 37.1567 115.22 37.4645 115.831C37.777 116.442 37.9309 117.183 37.9261 118.054V125H35.3551V118.452C35.3551 117.723 35.1657 117.152 34.7869 116.74C34.4129 116.328 33.8944 116.122 33.2315 116.122C32.7817 116.122 32.3816 116.222 32.0312 116.42C31.6856 116.615 31.4134 116.896 31.2145 117.266C31.0204 117.635 30.9233 118.082 30.9233 118.608ZM45.9872 114.091V116.08H39.7159V114.091H45.9872ZM41.2642 111.477H43.8352V121.719C43.8352 122.064 43.8873 122.33 43.9915 122.514C44.1004 122.694 44.2424 122.817 44.4176 122.884C44.5928 122.95 44.7869 122.983 45 122.983C45.161 122.983 45.3078 122.971 45.4403 122.947C45.5777 122.924 45.6818 122.902 45.7528 122.884L46.1861 124.893C46.0488 124.941 45.8523 124.993 45.5966 125.05C45.3456 125.107 45.0379 125.14 44.6733 125.149C44.0294 125.168 43.4493 125.071 42.9332 124.858C42.4171 124.64 42.0076 124.304 41.7045 123.849C41.4063 123.395 41.2595 122.827 41.2642 122.145V111.477ZM48.1374 125V114.091H50.6303V115.909H50.744C50.9428 115.279 51.2837 114.794 51.7667 114.453C52.2544 114.107 52.8107 113.935 53.4357 113.935C53.5778 113.935 53.7364 113.942 53.9116 113.956C54.0915 113.965 54.2406 113.982 54.359 114.006V116.371C54.2501 116.333 54.0773 116.3 53.8406 116.271C53.6085 116.238 53.3836 116.222 53.1658 116.222C52.6971 116.222 52.2757 116.323 51.9016 116.527C51.5323 116.726 51.2411 117.003 51.0281 117.358C50.815 117.713 50.7085 118.123 50.7085 118.587V125H48.1374ZM60.3764 125.213C59.3111 125.213 58.3878 124.979 57.6065 124.51C56.8253 124.041 56.2192 123.385 55.7884 122.543C55.3622 121.7 55.1491 120.715 55.1491 119.588C55.1491 118.461 55.3622 117.474 55.7884 116.626C56.2192 115.779 56.8253 115.121 57.6065 114.652C58.3878 114.183 59.3111 113.949 60.3764 113.949C61.4418 113.949 62.3651 114.183 63.1463 114.652C63.9276 115.121 64.5313 115.779 64.9574 116.626C65.3883 117.474 65.6037 118.461 65.6037 119.588C65.6037 120.715 65.3883 121.7 64.9574 122.543C64.5313 123.385 63.9276 124.041 63.1463 124.51C62.3651 124.979 61.4418 125.213 60.3764 125.213ZM60.3906 123.153C60.9683 123.153 61.4512 122.995 61.8395 122.678C62.2277 122.356 62.5166 121.925 62.706 121.385C62.9001 120.845 62.9972 120.244 62.9972 119.581C62.9972 118.913 62.9001 118.31 62.706 117.77C62.5166 117.225 62.2277 116.792 61.8395 116.47C61.4512 116.148 60.9683 115.987 60.3906 115.987C59.7988 115.987 59.3063 116.148 58.9134 116.47C58.5251 116.792 58.2339 117.225 58.0398 117.77C57.8504 118.31 57.7557 118.913 57.7557 119.581C57.7557 120.244 57.8504 120.845 58.0398 121.385C58.2339 121.925 58.5251 122.356 58.9134 122.678C59.3063 122.995 59.7988 123.153 60.3906 123.153ZM70.3569 110.455V125H67.7859V110.455H70.3569ZM77.8303 125.213C76.7365 125.213 75.7919 124.986 74.9964 124.531C74.2057 124.072 73.5973 123.423 73.1712 122.585C72.745 121.742 72.532 120.75 72.532 119.609C72.532 118.487 72.745 117.502 73.1712 116.655C73.602 115.803 74.2034 115.14 74.9751 114.666C75.7469 114.188 76.6536 113.949 77.6953 113.949C78.3677 113.949 79.0021 114.058 79.5987 114.276C80.2 114.489 80.7304 114.82 81.1896 115.27C81.6536 115.72 82.0182 116.293 82.2834 116.989C82.5485 117.68 82.6811 118.504 82.6811 119.46V120.249H73.7393V118.516H80.2166C80.2119 118.023 80.1054 117.585 79.897 117.202C79.6887 116.813 79.3975 116.508 79.0234 116.286C78.6541 116.063 78.2232 115.952 77.7308 115.952C77.2053 115.952 76.7436 116.08 76.3459 116.335C75.9482 116.586 75.638 116.918 75.4155 117.33C75.1977 117.737 75.0864 118.184 75.0817 118.672V120.185C75.0817 120.819 75.1977 121.364 75.4297 121.818C75.6617 122.268 75.986 122.614 76.4027 122.855C76.8194 123.092 77.3071 123.21 77.8658 123.21C78.2398 123.21 78.5784 123.158 78.8814 123.054C79.1844 122.945 79.4472 122.786 79.6697 122.578C79.8923 122.37 80.0604 122.112 80.174 121.804L82.5746 122.074C82.4231 122.708 82.1342 123.262 81.7081 123.736C81.2867 124.205 80.7469 124.569 80.0888 124.83C79.4306 125.085 78.6778 125.213 77.8303 125.213ZM89.9308 125V110.455H99.2489V112.663H92.5657V116.612H98.6097V118.821H92.5657V125H89.9308ZM101.536 125V114.091H104.107V125H101.536ZM102.828 112.543C102.421 112.543 102.071 112.408 101.777 112.138C101.484 111.863 101.337 111.534 101.337 111.151C101.337 110.762 101.484 110.433 101.777 110.163C102.071 109.889 102.421 109.751 102.828 109.751C103.24 109.751 103.591 109.889 103.88 110.163C104.173 110.433 104.32 110.762 104.32 111.151C104.32 111.534 104.173 111.863 103.88 112.138C103.591 112.408 103.24 112.543 102.828 112.543ZM109.322 118.608V125H106.751V114.091H109.208V115.945H109.336C109.587 115.334 109.987 114.848 110.536 114.489C111.09 114.129 111.774 113.949 112.589 113.949C113.342 113.949 113.997 114.11 114.556 114.432C115.12 114.754 115.555 115.22 115.863 115.831C116.175 116.442 116.329 117.183 116.325 118.054V125H113.754V118.452C113.754 117.723 113.564 117.152 113.185 116.74C112.811 116.328 112.293 116.122 111.63 116.122C111.18 116.122 110.78 116.222 110.43 116.42C110.084 116.615 109.812 116.896 109.613 117.266C109.419 117.635 109.322 118.082 109.322 118.608ZM122.077 125.22C121.386 125.22 120.763 125.097 120.21 124.851C119.66 124.6 119.225 124.231 118.903 123.743C118.585 123.255 118.427 122.654 118.427 121.939C118.427 121.323 118.54 120.814 118.768 120.412C118.995 120.009 119.305 119.688 119.698 119.446C120.091 119.205 120.534 119.022 121.026 118.899C121.523 118.771 122.037 118.679 122.567 118.622C123.207 118.556 123.725 118.497 124.123 118.445C124.521 118.388 124.809 118.303 124.989 118.189C125.174 118.071 125.266 117.888 125.266 117.642V117.599C125.266 117.064 125.108 116.65 124.79 116.357C124.473 116.063 124.016 115.916 123.42 115.916C122.79 115.916 122.29 116.054 121.921 116.328C121.557 116.603 121.31 116.927 121.183 117.301L118.782 116.96C118.971 116.297 119.284 115.743 119.719 115.298C120.155 114.848 120.688 114.512 121.317 114.29C121.947 114.062 122.643 113.949 123.406 113.949C123.931 113.949 124.454 114.01 124.975 114.134C125.496 114.257 125.972 114.46 126.403 114.744C126.834 115.024 127.179 115.405 127.44 115.888C127.705 116.371 127.837 116.974 127.837 117.699V125H125.366V123.501H125.281C125.124 123.804 124.904 124.089 124.62 124.354C124.341 124.614 123.988 124.825 123.562 124.986C123.14 125.142 122.646 125.22 122.077 125.22ZM122.745 123.331C123.261 123.331 123.709 123.229 124.087 123.026C124.466 122.817 124.757 122.543 124.961 122.202C125.169 121.861 125.273 121.489 125.273 121.087V119.801C125.193 119.867 125.056 119.929 124.862 119.986C124.672 120.043 124.459 120.092 124.222 120.135C123.986 120.178 123.751 120.215 123.519 120.249C123.287 120.282 123.086 120.31 122.915 120.334C122.532 120.386 122.189 120.471 121.886 120.589C121.583 120.708 121.344 120.874 121.168 121.087C120.993 121.295 120.906 121.565 120.906 121.896C120.906 122.37 121.078 122.727 121.424 122.969C121.77 123.21 122.21 123.331 122.745 123.331ZM132.994 118.608V125H130.423V114.091H132.88V115.945H133.008C133.259 115.334 133.659 114.848 134.208 114.489C134.762 114.129 135.446 113.949 136.261 113.949C137.013 113.949 137.669 114.11 138.228 114.432C138.791 114.754 139.227 115.22 139.535 115.831C139.847 116.442 140.001 117.183 139.996 118.054V125H137.425V118.452C137.425 117.723 137.236 117.152 136.857 116.74C136.483 116.328 135.965 116.122 135.302 116.122C134.852 116.122 134.452 116.222 134.102 116.42C133.756 116.615 133.484 116.896 133.285 117.266C133.091 117.635 132.994 118.082 132.994 118.608ZM147.369 125.213C146.28 125.213 145.344 124.974 144.563 124.496C143.787 124.018 143.188 123.357 142.766 122.514C142.35 121.667 142.141 120.691 142.141 119.588C142.141 118.48 142.354 117.502 142.781 116.655C143.207 115.803 143.808 115.14 144.585 114.666C145.366 114.188 146.289 113.949 147.354 113.949C148.24 113.949 149.023 114.112 149.705 114.439C150.392 114.761 150.939 115.218 151.346 115.81C151.753 116.397 151.985 117.083 152.042 117.869H149.585C149.485 117.344 149.248 116.906 148.874 116.555C148.505 116.2 148.01 116.023 147.39 116.023C146.864 116.023 146.403 116.165 146.005 116.449C145.607 116.728 145.297 117.131 145.075 117.656C144.857 118.182 144.748 118.812 144.748 119.545C144.748 120.289 144.857 120.928 145.075 121.463C145.292 121.993 145.598 122.403 145.991 122.692C146.388 122.976 146.855 123.118 147.39 123.118C147.769 123.118 148.107 123.047 148.406 122.905C148.709 122.758 148.962 122.547 149.165 122.273C149.369 121.998 149.509 121.664 149.585 121.271H152.042C151.98 122.043 151.753 122.727 151.36 123.324C150.967 123.916 150.432 124.38 149.755 124.716C149.078 125.047 148.282 125.213 147.369 125.213ZM158.983 125.213C157.889 125.213 156.944 124.986 156.149 124.531C155.358 124.072 154.75 123.423 154.324 122.585C153.897 121.742 153.684 120.75 153.684 119.609C153.684 118.487 153.897 117.502 154.324 116.655C154.754 115.803 155.356 115.14 156.127 114.666C156.899 114.188 157.806 113.949 158.848 113.949C159.52 113.949 160.154 114.058 160.751 114.276C161.352 114.489 161.883 114.82 162.342 115.27C162.806 115.72 163.171 116.293 163.436 116.989C163.701 117.68 163.833 118.504 163.833 119.46V120.249H154.892V118.516H161.369C161.364 118.023 161.258 117.585 161.049 117.202C160.841 116.813 160.55 116.508 160.176 116.286C159.806 116.063 159.376 115.952 158.883 115.952C158.358 115.952 157.896 116.08 157.498 116.335C157.1 116.586 156.79 116.918 156.568 117.33C156.35 117.737 156.239 118.184 156.234 118.672V120.185C156.234 120.819 156.35 121.364 156.582 121.818C156.814 122.268 157.138 122.614 157.555 122.855C157.972 123.092 158.459 123.21 159.018 123.21C159.392 123.21 159.731 123.158 160.034 123.054C160.337 122.945 160.6 122.786 160.822 122.578C161.045 122.37 161.213 122.112 161.326 121.804L163.727 122.074C163.575 122.708 163.287 123.262 162.86 123.736C162.439 124.205 161.899 124.569 161.241 124.83C160.583 125.085 159.83 125.213 158.983 125.213ZM166.009 125V114.091H168.58V125H166.009ZM167.301 112.543C166.894 112.543 166.544 112.408 166.25 112.138C165.956 111.863 165.81 111.534 165.81 111.151C165.81 110.762 165.956 110.433 166.25 110.163C166.544 109.889 166.894 109.751 167.301 109.751C167.713 109.751 168.063 109.889 168.352 110.163C168.646 110.433 168.793 110.762 168.793 111.151C168.793 111.534 168.646 111.863 168.352 112.138C168.063 112.408 167.713 112.543 167.301 112.543ZM171.223 125V114.091H173.716V115.909H173.83C174.029 115.279 174.37 114.794 174.853 114.453C175.34 114.107 175.897 113.935 176.522 113.935C176.664 113.935 176.822 113.942 176.998 113.956C177.177 113.965 177.327 113.982 177.445 114.006V116.371C177.336 116.333 177.163 116.3 176.926 116.271C176.694 116.238 176.47 116.222 176.252 116.222C175.783 116.222 175.362 116.323 174.988 116.527C174.618 116.726 174.327 117.003 174.114 117.358C173.901 117.713 173.794 118.123 173.794 118.587V125H171.223ZM183.462 125.213C182.397 125.213 181.474 124.979 180.692 124.51C179.911 124.041 179.305 123.385 178.874 122.543C178.448 121.7 178.235 120.715 178.235 119.588C178.235 118.461 178.448 117.474 178.874 116.626C179.305 115.779 179.911 115.121 180.692 114.652C181.474 114.183 182.397 113.949 183.462 113.949C184.528 113.949 185.451 114.183 186.232 114.652C187.013 115.121 187.617 115.779 188.043 116.626C188.474 117.474 188.69 118.461 188.69 119.588C188.69 120.715 188.474 121.7 188.043 122.543C187.617 123.385 187.013 124.041 186.232 124.51C185.451 124.979 184.528 125.213 183.462 125.213ZM183.477 123.153C184.054 123.153 184.537 122.995 184.925 122.678C185.314 122.356 185.603 121.925 185.792 121.385C185.986 120.845 186.083 120.244 186.083 119.581C186.083 118.913 185.986 118.31 185.792 117.77C185.603 117.225 185.314 116.792 184.925 116.47C184.537 116.148 184.054 115.987 183.477 115.987C182.885 115.987 182.392 116.148 181.999 116.47C181.611 116.792 181.32 117.225 181.126 117.77C180.936 118.31 180.842 118.913 180.842 119.581C180.842 120.244 180.936 120.845 181.126 121.385C181.32 121.925 181.611 122.356 181.999 122.678C182.392 122.995 182.885 123.153 183.477 123.153Z" fill="white"/>
</svg>
