<svg width="19" height="21" viewBox="0 0 19 21" fill="none" xmlns="http://www.w3.org/2000/svg">
<path d="M2.41932 3.41932C2.6879 3.15083 3.05212 3 3.43188 3C3.81164 3 4.17586 3.15083 4.44444 3.41932L9.50865 8.48353L14.5729 3.41932C14.843 3.15844 15.2047 3.01408 15.5803 3.01735C15.9558 3.02061 16.315 3.17123 16.5805 3.43677C16.8461 3.70231 16.9967 4.06152 16.9999 4.43703C17.0032 4.81255 16.8589 5.17432 16.598 5.44444L11.5338 10.5086L16.598 15.5729C16.8589 15.843 17.0032 16.2047 16.9999 16.5803C16.9967 16.9558 16.8461 17.315 16.5805 17.5805C16.315 17.8461 15.9558 17.9967 15.5803 17.9999C15.2047 18.0032 14.843 17.8589 14.5729 17.598L9.50865 12.5338L4.44444 17.598C4.17432 17.8589 3.81255 18.0032 3.43703 17.9999C3.06152 17.9967 2.70231 17.8461 2.43677 17.5805C2.17123 17.315 2.02061 16.9558 2.01735 16.5803C2.01408 16.2047 2.15844 15.843 2.41932 15.5729L7.48353 10.5086L2.41932 5.44444C2.15083 5.17586 2 4.81164 2 4.43188C2 4.05212 2.15083 3.6879 2.41932 3.41932Z" fill="white"/>
</svg>
