<svg width="400" height="400" viewBox="0 0 400 400" fill="none" xmlns="http://www.w3.org/2000/svg">
<g filter="url(#filter0_d_2_25)">
<path d="M242.526 155H157.069C154.825 155 153.005 156.815 153.005 159.043C153.005 161.27 154.825 163.085 157.069 163.085H242.526C248.225 163.085 252.867 167.699 252.867 173.383V225.622C252.867 231.296 248.225 235.91 242.526 235.91H157.474C151.775 235.91 147.133 231.296 147.133 225.622V172.98C147.133 170.742 145.308 168.933 143.059 168.933C140.819 168.933 139 170.742 139 172.98V225.622C139 235.762 147.286 244 157.474 244H242.526C252.714 244 261 235.762 261 225.622V173.383C261 163.238 252.714 155 242.526 155ZM228.869 212.434C226.399 212.434 224.401 210.44 224.401 207.998C224.401 205.755 222.576 203.945 220.332 203.945C218.087 203.945 216.268 205.755 216.268 207.998C216.268 213.479 219.855 218.108 224.8 219.8V222.089C224.8 224.322 226.625 226.142 228.869 226.142C231.119 226.142 232.933 224.322 232.933 222.089V219.8C237.883 218.108 241.465 213.479 241.465 207.998C241.465 201.075 235.818 195.452 228.869 195.452C226.399 195.452 224.401 193.459 224.401 191.012C224.401 188.56 226.399 186.567 228.869 186.567C231.329 186.567 233.333 188.56 233.333 191.012C233.333 193.245 235.152 195.06 237.401 195.06C239.646 195.06 241.465 193.245 241.465 191.012C241.465 185.521 237.883 180.903 232.933 179.205V176.906C232.933 174.673 231.119 172.858 228.869 172.858C226.625 172.858 224.8 174.673 224.8 176.906V179.205C219.855 180.903 216.268 185.521 216.268 191.012C216.268 197.925 221.92 203.543 228.869 203.543C231.329 203.543 233.333 205.536 233.333 207.998C233.333 210.44 231.329 212.434 228.869 212.434ZM159.329 223.776H199.997C202.242 223.776 204.061 221.956 204.061 219.729C204.061 217.501 202.242 215.686 199.997 215.686H159.329C157.085 215.686 155.265 217.501 155.265 219.729C155.265 221.956 157.085 223.776 159.329 223.776ZM159.329 183.319H199.997C202.242 183.319 204.061 181.504 204.061 179.276C204.061 177.038 202.242 175.229 199.997 175.229H159.329C157.085 175.229 155.265 177.038 155.265 179.276C155.265 181.504 157.085 183.319 159.329 183.319ZM159.329 203.543H199.997C202.242 203.543 204.061 201.733 204.061 199.495C204.061 197.262 202.242 195.452 199.997 195.452H159.329C157.085 195.452 155.265 197.262 155.265 199.495C155.265 201.733 157.085 203.543 159.329 203.543Z" fill="white"/>
</g>
<defs>
<filter id="filter0_d_2_25" x="-4" y="0" width="408" height="408" filterUnits="userSpaceOnUse" color-interpolation-filters="sRGB">
<feFlood flood-opacity="0" result="BackgroundImageFix"/>
<feColorMatrix in="SourceAlpha" type="matrix" values="0 0 0 0 0 0 0 0 0 0 0 0 0 0 0 0 0 0 127 0" result="hardAlpha"/>
<feOffset dy="4"/>
<feGaussianBlur stdDeviation="2"/>
<feComposite in2="hardAlpha" operator="out"/>
<feColorMatrix type="matrix" values="0 0 0 0 0 0 0 0 0 0 0 0 0 0 0 0 0 0 0.25 0"/>
<feBlend mode="normal" in2="BackgroundImageFix" result="effect1_dropShadow_2_25"/>
<feBlend mode="normal" in="SourceGraphic" in2="effect1_dropShadow_2_25" result="shape"/>
</filter>
</defs>
</svg>
