<svg width="400" height="400" viewBox="0 0 400 400" fill="none" xmlns="http://www.w3.org/2000/svg">
<g filter="url(#filter0_d_2_24)">
<path d="M271.109 125H128.214C124.461 125 121.419 128.051 121.419 131.795C121.419 135.54 124.461 138.59 128.214 138.59H271.109C280.638 138.59 288.401 146.345 288.401 155.899V243.705C288.401 253.242 280.638 260.997 271.109 260.997H128.891C119.362 260.997 111.599 253.242 111.599 243.705V155.223C111.599 151.461 108.548 148.419 104.787 148.419C101.042 148.419 98 151.461 98 155.223V243.705C98 260.749 111.856 274.596 128.891 274.596H271.109C288.144 274.596 302 260.749 302 243.705V155.899C302 138.847 288.144 125 271.109 125ZM248.273 221.537C244.143 221.537 240.801 218.187 240.801 214.082C240.801 210.312 237.75 207.27 233.997 207.27C230.244 207.27 227.202 210.312 227.202 214.082C227.202 223.294 233.2 231.074 241.469 233.919V237.767C241.469 241.52 244.52 244.579 248.273 244.579C252.035 244.579 255.068 241.52 255.068 237.767V233.919C263.346 231.074 269.335 223.294 269.335 214.082C269.335 202.446 259.892 192.994 248.273 192.994C244.143 192.994 240.801 189.644 240.801 185.531C240.801 181.409 244.143 178.059 248.273 178.059C252.386 178.059 255.736 181.409 255.736 185.531C255.736 189.284 258.778 192.334 262.54 192.334C266.293 192.334 269.335 189.284 269.335 185.531C269.335 176.302 263.346 168.539 255.068 165.685V161.821C255.068 158.067 252.035 155.017 248.273 155.017C244.52 155.017 241.469 158.067 241.469 161.821V165.685C233.2 168.539 227.202 176.302 227.202 185.531C227.202 197.15 236.653 206.593 248.273 206.593C252.386 206.593 255.736 209.944 255.736 214.082C255.736 218.187 252.386 221.537 248.273 221.537ZM131.993 240.603H199.996C203.749 240.603 206.791 237.544 206.791 233.799C206.791 230.055 203.749 227.004 199.996 227.004H131.993C128.24 227.004 125.198 230.055 125.198 233.799C125.198 237.544 128.24 240.603 131.993 240.603ZM131.993 172.6H199.996C203.749 172.6 206.791 169.55 206.791 165.805C206.791 162.043 203.749 159.001 199.996 159.001H131.993C128.24 159.001 125.198 162.043 125.198 165.805C125.198 169.55 128.24 172.6 131.993 172.6ZM131.993 206.593H199.996C203.749 206.593 206.791 203.551 206.791 199.789C206.791 196.036 203.749 192.994 199.996 192.994H131.993C128.24 192.994 125.198 196.036 125.198 199.789C125.198 203.551 128.24 206.593 131.993 206.593Z" fill="white"/>
</g>
<defs>
<filter id="filter0_d_2_24" x="-4" y="0" width="408" height="408" filterUnits="userSpaceOnUse" color-interpolation-filters="sRGB">
<feFlood flood-opacity="0" result="BackgroundImageFix"/>
<feColorMatrix in="SourceAlpha" type="matrix" values="0 0 0 0 0 0 0 0 0 0 0 0 0 0 0 0 0 0 127 0" result="hardAlpha"/>
<feOffset dy="4"/>
<feGaussianBlur stdDeviation="2"/>
<feComposite in2="hardAlpha" operator="out"/>
<feColorMatrix type="matrix" values="0 0 0 0 0 0 0 0 0 0 0 0 0 0 0 0 0 0 0.25 0"/>
<feBlend mode="normal" in2="BackgroundImageFix" result="effect1_dropShadow_2_24"/>
<feBlend mode="normal" in="SourceGraphic" in2="effect1_dropShadow_2_24" result="shape"/>
</filter>
</defs>
</svg>
